<?xml version="1.0" encoding="UTF-8"?>
<svg id="Layer_1" data-name="Layer 1" xmlns="http://www.w3.org/2000/svg" viewBox="0 0 48 48">
  <defs>
    <style>
      .cls-1 {
        fill: #010101;
      }

      .cls-2 {
        fill: #020202;
      }

      .cls-3 {
        fill: #fff;
      }
    </style>
  </defs>
  <circle class="cls-3" cx="24" cy="24" r="24"/>
  <g>
    <path class="cls-1" d="M41.94,12.1c2.4,1.21,4.43,3.15,5.32,5.78.08.24.1.37.16.61.01.05.1.04.11.08.47,2.04-.63,4.61-2.34,5.78-.23.16-1.06.64-1.29.72-.57.2-1.19-.28-1.73-.54-.64-.31-2.18-1.01-2.52-1.63-.45-.82.13-1.72.77-2.25.78-.64,2.58-1.2,3.56-1.08.02,0,.34.1.43.13.19.05,1.2.52,1.25.48-.08-.37-.81-.83-1.15-.91-.79-.18-1.67-.03-2.46.14-2.66.58-4.22,2.43-6.23,4.05-1.68,1.35-3.44,2.74-5.48,3.43-.46.16-1.15.53-1.51.04-.3-.42-.05-.53-.06-.96-.07-.09-.47.54-.84.44-.2-.05-.24-.67-.2-.84,0-.04.09-.03.1-.08.34-1.3,1.15-2.88,1.82-4.07.22-.39.94-1.32,1.04-1.66.12-.45-.38.33-.41.36-1.09,1.5-2.43,3.34-3.1,5.06-.1.25-.11.62-.31.84-.07.08-.06.12-.19.09-.3-.07-.24-.28-.28-.31-.12-.12-.08.12-.16.11,0-.08-.07-.14-.1-.21-.26-.84-.07-1.46-.01-2.3.11-1.85.1-3.71.62-5.49.9-3.02,3.96-6.3,7.03-7.14,2.18-.6,6.08.29,8.15,1.33Z"/>
    <path class="cls-1" d="M13.72,10.66c.36.16.89.24,1.28.39,2.44.94,5.16,3.94,6.01,6.4.4,1.17.48,2.22.61,3.41.12,1.03.17,2.1.28,3.14.07.64-.03,1.29-.17,1.9-.15.05-.1-.1-.11-.11-.12-.09-.1.11-.17.19-.5.61-.77-.97-.89-1.25-.31-.77-.81-1.43-1.26-2.12-.71-1.1-1.38-2.18-2.18-3.21l-.14.11c.16-.01.22.37.29.43.03.03.11,0,.14.02.03.03,0,.14.04.21.54.98,1.17,1.88,1.66,2.91.3.63.95,1.94,1.06,2.58.07.37-.02.88-.49.71-.11-.04-.5-.47-.55-.41-.09.23.13.45.11.63-.02.14-.29.54-.43.57-.34.1-.92-.17-1.25-.28-2.25-.75-3.89-2.2-5.71-3.68-1.94-1.58-3.47-3.21-6-3.8-.73-.17-1.67-.32-2.46-.14-.15.03-1.32.65-1.1.86.28.04.49-.19.74-.28,1.39-.5,3.25-.17,4.41.77.68.55,1.25,1.47.77,2.31-.51.9-2.86,1.65-3.76,2.2-.25.07-.47-.06-.68-.16-2.73-1.28-4.05-4.03-3.18-6.96,1.2-4.06,5.6-6.71,9.67-7.26.46-.06,3.16-.22,3.43-.09Z"/>
    <path class="cls-2" d="M10.59,26.41c.2-.02.44.03.64,0,.43-.06.87-.15,1.32-.17.83-.04,3.34-.06,3.93.51.05.05.09.3.16.37.1.1.24-.02.19.22-.14-.04-.25.09-.36.11-.24.04-.53-.03-.77,0-.85.1-1.64.28-2.41.62-1.64.74-3.58,2.31-4.11,4.11-.22.76-.28,1.81.07,2.55.13.03.08-.11.08-.19.11-2.97,1.96-4.87,4.76-5.49.04,0,.03-.1.08-.11.38-.09,1.35.05,1.74.18.5.16,1.26.78,1.32,1.33.02.15-.08.48-.14.64-.33.94-1.04,2.02-1.54,2.92-.79,1.45-2,4.14-3.86,4.41-.57.08-1.58-.38-2.05-.74-.41-.31-.72-.95-1-1.39s-.52-.9-.78-1.34c-.14-.03-.08.04-.14.11-.2-.17-.51-.17-.74-.31-.1-.06-.16-.2-.26-.23-.8-.25-1.78-.21-2.6-.54-1.05-.42-1.69-1.22-1.83-2.36-.46-3.82,2.55-6.76,6.05-7.63.21-.05.47-.02.65-.06.04,0,.03-.1.08-.11.6-.14,2.33-.04,2.91.17.86.3,1.27.8.25,1.29-.4.19-.81.33-1.19.63-.06.05-.48.44-.41.5Z"/>
    <path class="cls-2" d="M41.23,24.56c1.74.76,3.45,2.3,4.12,4.18.46,1.29.59,3.69-.54,4.67s-2.39.73-3.61,1.13c-.12.04-.22.19-.34.26-.21.12-.45.11-.62.26-.1-.38-.11-.1-.19.03-.79,1.24-1.33,2.7-2.83,3.19-1.77.58-3.01-1.08-3.84-2.42-.73-1.18-1.5-2.68-2.11-3.94-.17-.36-.44-.78-.53-1.19-.15-.72.86-1.45,1.47-1.64,1.7-.52,3.92.54,5.05,1.85.77.9,1.19,2.06,1.35,3.22.03.19-.03.44,0,.64.12-.04.26-.42.27-.53.47-3.04-2.13-5.43-4.75-6.37-.25-.09-.37-.09-.61-.16-.33-.09-.84-.22-1.23-.27-.26-.03-.57.03-.82,0-.11-.02-.22-.15-.36-.11-.06-.24.11-.12.22-.24.09-.1.06-.3.14-.37.04-.04.43-.23.5-.25,1.33-.42,3.36-.26,4.72-.07.19.03.44-.02.64,0,.06-.05-.3-.4-.36-.44-.5-.43-1.18-.57-1.64-.9-.17-.12-.25-.21-.2-.43.11-.46.86-.64,1.27-.72,1.63-.33,3.3-.02,4.82.64Z"/>
    <path class="cls-2" d="M23.99,23.16c-.1-.01-.05.12-.06.19,0,.2.02.41,0,.6-.01.08-.09.14-.1.23-.15,1.06-.49,2.34-1.23,3.15-.02.03-.16.11-.19.12-.02,0-.33-.09-.34-.1-.02-.02-.01-.6,0-.68.09-.52.34-1.18.44-1.71.66-3.8-.55-8.65-3.14-11.57-.9-1.01-1.91-1.18-1.54-2.86.16-.7.91-2.02,1.58-2.34.16-.08.29-.04.42-.07.05-.01.04-.1.08-.11.9-.22,1.95.41,2.8.55.63.1,1.9.1,2.53,0,.86-.14,1.9-.76,2.8-.55.04,0,.03.09.08.1.71.19.92.37,1.32.99.47.72,1.01,1.86.65,2.7-.25.58-1.12,1.13-1.56,1.65-1.69,1.96-2.65,4.4-3.09,6.93-.31,1.81-.19,3.62.18,5.44.05.25.22.63.26.84.01.08.02.66,0,.68-.01.01-.36.09-.38.09-.04-.01-.16-.11-.19-.15-.57-.65-1.02-1.88-1.19-2.72-.02-.12-.11-.47-.11-.49v-.91ZM24.08,10.22c-.22-.14-.6.37-.71.55-.57.89-.69,3.01-.6,4.09.06.73.76,1.5,1.01,2.24.04.11.01.22.03.3.03.11.1.08.11.12.04.15-.05.37.03.51.06,0,0-.43.03-.51,0-.02.09-.22.12-.33.24-.75.98-1.63,1.03-2.33.08-1.05-.04-3.12-.53-3.99-.08-.14-.41-.56-.54-.65Z"/>
    <path class="cls-2" d="M19.83,28.08c.59.44,1.07,1.02,1.48,1.63l.12-.07c.22-.58.65-1.13,1.08-1.56.17-.17.62-.64.85-.5.2.12.04.29.03.36-.17,1-.33,2.19,0,3.17.02.07.24.56.27.59.02.02.51.03.56.01.03,0,.27-.52.29-.6.31-.91.19-2.18,0-3.11-.02-.08-.1-.15-.1-.23,0-.24.34-.22.51-.14.05.02.68.67.75.76.19.22.53.67.67.92.06.11.09.35.11.36.16.13.62-.63.72-.74.34-.39,1.4-1.29,1.88-1.43.17-.05.67-.06.85-.03.39.07.58.51.63.85.06.42-.17,1.17-.28,1.59-.61,2.19-1.94,4.78-3.3,6.68-.56.78-1.19,1.66-2.27,1.39-.45-.11-.43-.05-.79-.09-.08,0-.14-.1-.22-.11-.11,0-.34.16-.46.2-.98.29-1.61-.5-2.13-1.2-1.39-1.87-3.4-5.64-3.72-7.91-.07-.51.07-1.32.68-1.4.74-.1,1.22.21,1.77.63Z"/>
  </g>
</svg>